# xmcd
#
# Track frame offsets:
#	150
#	17871
#	38090
#	59189
#	73662
#	94705
#	111724
#	129528
#	145214
#	166971
#	182988
#	216513
#	234295
#	269225
#
# Disc length: 3847 seconds
#
# Revision: 2
# Processed by: cddbd v1.5PL3 Copyright (c) Steve Scherf et al.
# Submitted via: MusicWizard 7.0.2
#
DISCID=e30f050e
DTITLE=Boogie Connection - Playing With Our Friends
DYEAR=1996
DGENRE=Blues
TTITLE0=I'm Moving On
TTITLE1=I Ain't Drunk
TTITLE2=There Must Be A Better World
TTITLE3=Mr. Pinetop's Job
TTITLE4=There Is Something On Your Mind
TTITLE5=I'm Ready
TTITLE6=Lucille
TTITLE7=Every Little Bit Hurts
TTITLE8=Boogie Woogie Stomp
TTITLE9=I Believe To My Soul
TTITLE10=Me And My Telephone
TTITLE11=When I'm Drinking
TTITLE12=I Got A Women
TTITLE13=I Do My Job
EXTD=Bei Fragen.. IRCnet - #mp3.filez :)
EXTT0=
EXTT1=
EXTT2=
EXTT3=
EXTT4=
EXTT5=
EXTT6=
EXTT7=
EXTT8=
EXTT9=
EXTT10=
EXTT11=
EXTT12=
EXTT13=
PLAYORDER=
